<?xml version="1.0" encoding="utf-8"?>
<!-- Generator: Adobe Illustrator 24.2.3, SVG Export Plug-In . SVG Version: 6.00 Build 0)  -->
<svg version="1.1" id="图层_1" xmlns="http://www.w3.org/2000/svg" xmlns:xlink="http://www.w3.org/1999/xlink" x="0px"
     y="0px"
     viewBox="0 0 200 200" style="enable-background:new 0 0 200 200;" xml:space="preserve">
<style type="text/css">
	.st0{fill:#FFFFFF;stroke:#000000;stroke-miterlimit:10;}
</style>
  <circle class="st0" cx="100" cy="102" r="63.8"/>
  <path d="M135.2,150l-9.4-40.2l31.3-27l-41-3.5l-16-37.5L84,79.7l-41,3.1l31.3,27L64.8,150l35.2-21.1L135.2,150z M100,16.8
	c22.9,0,42.5,8.1,58.8,24.4s24.4,35.9,24.4,58.8s-8.1,42.5-24.4,58.8s-35.9,24.4-58.8,24.4s-42.5-8.1-58.8-24.4S16.8,122.9,16.8,100
	c0-22.9,8.1-42.5,24.4-58.8S77.1,16.8,100,16.8L100,16.8z"/>
</svg>
